<svg width="512" height="512" viewBox="0 0 512 512" fill="none" xmlns="http://www.w3.org/2000/svg">
  <rect width="512" height="512" rx="128" fill="url(#paint0_linear)"/>
  <rect x="40" y="40" width="432" height="432" rx="104" stroke="#FFFFFF" stroke-opacity="0.22" stroke-width="8"/>
  <path d="M194 134C250 174 262 220 262 256C262 292 250 338 194 378" stroke="white" stroke-width="22" stroke-linecap="round"/>
  <path d="M318 134C262 174 250 220 250 256C250 292 262 338 318 378" stroke="white" stroke-width="22" stroke-linecap="round"/>
  <path d="M208 176H304" stroke="#22D3EE" stroke-width="18" stroke-linecap="round"/>
  <path d="M208 256H304" stroke="#F8FAFC" stroke-width="18" stroke-linecap="round"/>
  <path d="M208 336H304" stroke="#F472B6" stroke-width="18" stroke-linecap="round"/>
  <circle cx="256" cy="94" r="26" fill="#34D399"/>
  <path d="M330 94C330 70 348 54 378 54C378 88 360 110 330 110V94Z" fill="#34D399"/>
  <defs>
    <linearGradient id="paint0_linear" x1="44" y1="28" x2="456" y2="470" gradientUnits="userSpaceOnUse">
      <stop stop-color="#8B5CF6"/>
      <stop offset="0.54" stop-color="#7C3AED"/>
      <stop offset="1" stop-color="#0EA5E9"/>
    </linearGradient>
  </defs>
</svg>
